<svg width="72" height="72" viewBox="0 0 72 72" fill="none" xmlns="http://www.w3.org/2000/svg">
<g filter="url(#filter0_ii_1372_4109)">
<g clip-path="url(#clip0_1372_4109)">
<path d="M36 72C55.8823 72 72 55.8823 72 36C72 16.1177 55.8823 0 36 0C16.1177 0 0 16.1177 0 36C0 55.8823 16.1177 72 36 72Z" fill="#0052FF"/>
<path d="M36.1592 61.0169C50.1124 61.0169 61.4233 49.7253 61.4233 35.7965C61.4233 21.8677 50.1124 10.5762 36.1592 10.5762C22.9213 10.5762 12.0615 20.7398 10.9829 33.6765H44.3766V37.9165H10.9829C12.0615 50.8531 22.9213 61.0169 36.1592 61.0169Z" fill="white"/>
</g>
</g>
<defs>
<filter id="filter0_ii_1372_4109" x="0" y="-2" width="72" height="78" filterUnits="userSpaceOnUse" color-interpolation-filters="sRGB">
<feFlood flood-opacity="0" result="BackgroundImageFix"/>
<feBlend mode="normal" in="SourceGraphic" in2="BackgroundImageFix" result="shape"/>
<feColorMatrix in="SourceAlpha" type="matrix" values="0 0 0 0 0 0 0 0 0 0 0 0 0 0 0 0 0 0 127 0" result="hardAlpha"/>
<feOffset dy="4"/>
<feGaussianBlur stdDeviation="2"/>
<feComposite in2="hardAlpha" operator="arithmetic" k2="-1" k3="1"/>
<feColorMatrix type="matrix" values="0 0 0 0 1 0 0 0 0 1 0 0 0 0 1 0 0 0 0.25 0"/>
<feBlend mode="normal" in2="shape" result="effect1_innerShadow_1372_4109"/>
<feColorMatrix in="SourceAlpha" type="matrix" values="0 0 0 0 0 0 0 0 0 0 0 0 0 0 0 0 0 0 127 0" result="hardAlpha"/>
<feOffset dy="-2"/>
<feGaussianBlur stdDeviation="2"/>
<feComposite in2="hardAlpha" operator="arithmetic" k2="-1" k3="1"/>
<feColorMatrix type="matrix" values="0 0 0 0 1 0 0 0 0 1 0 0 0 0 1 0 0 0 0.25 0"/>
<feBlend mode="normal" in2="effect1_innerShadow_1372_4109" result="effect2_innerShadow_1372_4109"/>
</filter>
<clipPath id="clip0_1372_4109">
<rect width="72" height="72" rx="36" fill="white"/>
</clipPath>
</defs>
</svg>
